<?xml version="1.0" encoding="UTF-8" standalone="no"?>
<svg
   xmlns:dc="http://purl.org/dc/elements/1.1/"
   xmlns:cc="http://creativecommons.org/ns#"
   xmlns:rdf="http://www.w3.org/1999/02/22-rdf-syntax-ns#"
   xmlns:svg="http://www.w3.org/2000/svg"
   xmlns="http://www.w3.org/2000/svg"
   xmlns:sodipodi="http://sodipodi.sourceforge.net/DTD/sodipodi-0.dtd"
   xmlns:inkscape="http://www.inkscape.org/namespaces/inkscape"
   version="1.1"
   id="Layer_1"
   x="0px"
   y="0px"
   width="50px"
   height="50px"
   viewBox="0 0 50 50"
   enable-background="new 0 0 50 50"
   xml:space="preserve"
   inkscape:version="0.48.4 r9939"
   sodipodi:docname="icon-menu-about.svg"><metadata
     id="metadata3073"><rdf:RDF><cc:Work
         rdf:about=""><dc:format>image/svg+xml</dc:format><dc:type
           rdf:resource="http://purl.org/dc/dcmitype/StillImage" /></cc:Work></rdf:RDF></metadata><defs
     id="defs3071" /><sodipodi:namedview
     pagecolor="#ffffff"
     bordercolor="#666666"
     borderopacity="1"
     objecttolerance="10"
     gridtolerance="10"
     guidetolerance="10"
     inkscape:pageopacity="0"
     inkscape:pageshadow="2"
     inkscape:window-width="1366"
     inkscape:window-height="723"
     id="namedview3069"
     showgrid="false"
     inkscape:zoom="11.06"
     inkscape:cx="10.39783"
     inkscape:cy="25"
     inkscape:window-x="-2"
     inkscape:window-y="19"
     inkscape:window-maximized="1"
     inkscape:current-layer="Layer_1" /><g
     id="bulb"
     style="fill:#ffffff;fill-opacity:1"><path
       fill="#000000"
       d="M24.798,14.479c-6.971,0-12.639,5.671-12.639,12.642c0,4.656,4.091,8.785,4.267,8.959   c0.726,0.723,1.388,2.312,1.388,3.336v5.927c0,2.042,1.661,3.704,3.703,3.704h6.568c2.04,0,3.702-1.662,3.702-3.704v-5.927   c0-1.023,0.664-2.613,1.391-3.334c0.173-0.174,4.266-4.305,4.266-8.961C37.438,20.147,31.769,14.479,24.798,14.479z M29.319,40.426   v1.827h-9.04v-1.827H29.319z M28.085,46.577h-6.57c-0.682,0-1.235-0.553-1.235-1.235v-0.617h9.04v0.617   C29.319,46.022,28.764,46.577,28.085,46.577z M31.429,34.33c-0.881,0.873-1.59,2.274-1.913,3.626h-9.433   c-0.326-1.352-1.035-2.753-1.914-3.626c-0.037-0.036-3.541-3.569-3.541-7.21c0-5.61,4.563-10.172,10.17-10.172   c5.61,0,10.171,4.562,10.171,10.172C34.97,30.74,31.463,34.296,31.429,34.33z"
       id="path3059"
       style="fill:#ffffff;fill-opacity:1" /><path
       fill="#000000"
       d="M25.237,10.643c0.95,0,1.718-0.772,1.718-1.717V2.671c0-0.948-0.771-1.717-1.718-1.717   c-0.945,0-1.715,0.771-1.715,1.717v6.254C23.522,9.873,24.291,10.643,25.237,10.643z"
       id="path3061"
       style="fill:#ffffff;fill-opacity:1" /><path
       fill="#000000"
       d="M39.2,7.218l-4.423,4.422c-0.668,0.67-0.668,1.758,0,2.428c0.671,0.668,1.76,0.668,2.429,0l4.42-4.422   c0.669-0.67,0.669-1.757,0-2.428C40.955,6.548,39.867,6.548,39.2,7.218z"
       id="path3063"
       style="fill:#ffffff;fill-opacity:1" /><path
       fill="#000000"
       d="M16.253,14.066c0.669-0.67,0.669-1.758,0-2.428l-4.419-4.423c-0.669-0.667-1.761-0.667-2.427,0   c-0.669,0.671-0.669,1.758,0,2.429l4.419,4.422C14.496,14.737,15.584,14.737,16.253,14.066z"
       id="path3065"
       style="fill:#ffffff;fill-opacity:1" /><path
       fill="#000000"
       d="M19.477,29.031l1.746,1.745c1.909-1.906,5.23-1.906,7.144,0l1.744-1.745   C27.254,26.176,22.332,26.176,19.477,29.031z"
       id="path3067"
       style="fill:#ffffff;fill-opacity:1" /></g></svg>