<?xml version="1.0" encoding="UTF-8" standalone="no"?>
<!-- Generator: Adobe Illustrator 15.1.0, SVG Export Plug-In . SVG Version: 6.00 Build 0)  -->

<svg
   xmlns:dc="http://purl.org/dc/elements/1.1/"
   xmlns:cc="http://creativecommons.org/ns#"
   xmlns:rdf="http://www.w3.org/1999/02/22-rdf-syntax-ns#"
   xmlns:svg="http://www.w3.org/2000/svg"
   xmlns="http://www.w3.org/2000/svg"
   xmlns:sodipodi="http://sodipodi.sourceforge.net/DTD/sodipodi-0.dtd"
   xmlns:inkscape="http://www.inkscape.org/namespaces/inkscape"
   version="1.1"
   id="Layer_1"
   x="0px"
   y="0px"
   width="100px"
   height="87.233px"
   viewBox="0 0 100 87.233"
   enable-background="new 0 0 100 87.233"
   xml:space="preserve"
   inkscape:version="0.48.4 r9939"
   sodipodi:docname="icon-menu-contact.svg"><metadata
     id="metadata4475"><rdf:RDF><cc:Work
         rdf:about=""><dc:format>image/svg+xml</dc:format><dc:type
           rdf:resource="http://purl.org/dc/dcmitype/StillImage" /></cc:Work></rdf:RDF></metadata><defs
     id="defs4473" /><sodipodi:namedview
     pagecolor="#ffffff"
     bordercolor="#666666"
     borderopacity="1"
     objecttolerance="10"
     gridtolerance="10"
     guidetolerance="10"
     inkscape:pageopacity="0"
     inkscape:pageshadow="2"
     inkscape:window-width="711"
     inkscape:window-height="480"
     id="namedview4471"
     showgrid="false"
     inkscape:zoom="2.7053981"
     inkscape:cx="50"
     inkscape:cy="43.616501"
     inkscape:window-x="0"
     inkscape:window-y="26"
     inkscape:window-maximized="0"
     inkscape:current-layer="Layer_1" /><path
     fill="#010101"
     d="M50,0C22.213,0,0,16.96,0,38.048c0,12.5,6.284,23.659,18.519,30.625l-4.629,18.56  c0,0,33.447-8.563,45.37-12.063C83.105,69.438,100,56.782,100,38.049C100,16.961,77.787,0,50,0z M57.408,69.602  c-17.426,4.857-36.11,10.209-36.11,10.209l4.629-13.92C15.729,60.085,6.482,49.858,6.482,38.049C6.482,20.476,26.844,5.568,50,5.568  s44.445,14.907,44.445,32.481C94.445,53.66,74.572,66.188,57.408,69.602z"
     id="path4469"
     style="fill:#ffffff;fill-opacity:1" /></svg>